<svg width="115" height="40" viewBox="0 0 115 40" fill="none" xmlns="http://www.w3.org/2000/svg">
<g id="Frame" clip-path="url(#clip0_3982_1218)">
<g id="Group">
<path id="Vector" d="M32.569 32.6313C33.2111 32.6313 33.7427 32.8488 34.1691 33.2784C34.606 33.7081 34.8165 34.2438 34.8165 34.8802C34.8165 35.5167 34.606 36.0418 34.1691 36.482C33.7427 36.9116 33.2111 37.1291 32.569 37.1291H31.1847V39.4735H30.0688V32.6367H32.569V32.6313ZM32.569 36.0683C33.2269 36.0683 33.7006 35.5697 33.7006 34.8749C33.7006 34.1801 33.2269 33.6815 32.569 33.6815H31.1847V36.063H32.569V36.0683Z" fill="#103559"/>
<path id="Vector_2" d="M36.4959 37.5163C36.6572 38.2014 37.286 38.5782 38.1374 38.5782C38.7217 38.5782 39.1613 38.3873 39.4618 38.0203L40.3744 38.4901C39.8736 39.1458 39.1223 39.4737 38.1319 39.4737C37.3027 39.4737 36.6239 39.2486 36.1119 38.8082C35.6 38.358 35.344 37.7903 35.344 37.1052C35.344 36.4202 35.6 35.8721 36.1008 35.4219C36.6016 34.9619 37.2582 34.7368 38.0484 34.7368C38.794 34.7368 39.4117 34.9717 39.8903 35.4317C40.3744 35.8917 40.6192 36.4593 40.6192 37.115C40.6192 37.2129 40.6081 37.3499 40.5803 37.5212H36.5014L36.4959 37.5163ZM39.5007 36.7235C39.3449 35.9944 38.7607 35.6127 38.0373 35.6127C37.2193 35.6127 36.6461 36.0385 36.4903 36.7235H39.5007Z" fill="#103559"/>
<path id="Vector_3" d="M43.7844 35.5459H42.5736V37.8969C42.5736 38.5245 42.9825 38.5139 43.7844 38.4766V39.4287C42.17 39.6255 41.5168 39.184 41.5168 37.9022V35.5512H40.6193V34.53H41.5168V33.4715L42.5736 33.1577V34.53H43.7844V35.5512V35.5459Z" fill="#103559"/>
<path id="Vector_4" d="M46.3866 36.6815C47.1 36.8334 48.0243 37.1224 48.0042 38.0874C48.0042 38.5185 47.8284 38.8613 47.4868 39.1063C47.1452 39.3512 46.7182 39.4737 46.2008 39.4737C45.2865 39.4737 44.6083 39.0769 44.3119 38.4205L45.1709 37.9355C45.3267 38.3666 45.6683 38.587 46.1957 38.587C46.7232 38.587 46.9844 38.4156 46.9844 38.0825C46.9844 37.7935 46.5976 37.622 46.1053 37.5045C45.4121 37.333 44.4777 37.0636 44.4978 36.1133C44.4978 35.6969 44.6535 35.3638 44.98 35.114C45.3015 34.8593 45.7135 34.7368 46.1907 34.7368C46.9593 34.7368 47.5772 35.0895 47.9038 35.6773L47.0598 36.1378C46.9041 35.7949 46.6077 35.6234 46.1907 35.6234C45.8139 35.6234 45.5176 35.7851 45.5176 36.1035C45.5176 36.4023 45.9044 36.5542 46.3866 36.6913V36.6815Z" fill="#103559"/>
<path id="Vector_5" d="M54.3348 33.6374C53.5037 33.5698 53.0995 33.8873 53.0995 34.5849V34.6787H54.3348V35.6782H53.0995V39.4735H51.9667V35.6782H51.1697V34.6787H51.9667V34.5849C51.9667 33.273 52.7864 32.5546 54.3348 32.6379V33.6374Z" fill="#103559"/>
<path id="Vector_6" d="M55.633 38.7886C55.1229 38.3286 54.8624 37.7707 54.8624 37.1052C54.8624 36.4397 55.1229 35.8819 55.633 35.4219C56.1432 34.9619 56.7727 34.7368 57.5 34.7368C58.2272 34.7368 58.8568 34.9619 59.3669 35.4219C59.8771 35.8819 60.1376 36.4397 60.1376 37.1052C60.1376 37.7707 59.8771 38.3286 59.3669 38.7886C58.8568 39.2486 58.2381 39.4737 57.5 39.4737C56.7619 39.4737 56.1432 39.2486 55.633 38.7886ZM57.5 38.5292C57.9396 38.5292 58.3086 38.3922 58.6071 38.1231C58.9056 37.8539 59.0576 37.5114 59.0576 37.1052C59.0576 36.6991 58.9056 36.3565 58.6071 36.0874C58.3086 35.8183 57.9396 35.6812 57.5 35.6812C57.0604 35.6812 56.6913 35.8183 56.3928 36.0874C56.0943 36.3565 55.9424 36.6991 55.9424 37.1052C55.9424 37.5114 56.0943 37.8539 56.3928 38.1231C56.6913 38.3922 57.0604 38.5292 57.5 38.5292Z" fill="#103559"/>
<path id="Vector_7" d="M61.7518 35.6013C62.0249 35.025 62.5491 34.7368 63.3027 34.7368V35.8237C62.8931 35.7934 62.5273 35.8894 62.216 36.1018C61.9047 36.309 61.7518 36.6528 61.7518 37.128V39.4737H60.6651V34.8177H61.7518V35.6013Z" fill="#103559"/>
<path id="Vector_8" d="M71.2156 37.5201C71.2156 38.0774 71.0285 38.5445 70.6493 38.9161C70.2701 39.2877 69.81 39.4735 69.2639 39.4735H66.4679V32.6313H69.0566C69.5875 32.6313 70.0426 32.8171 70.4066 33.1781C70.7808 33.539 70.9628 33.9902 70.9628 34.5263C70.9628 35.1208 70.7403 35.5826 70.3004 35.9224C70.8667 36.2355 71.2105 36.8035 71.2105 37.5148L71.2156 37.5201ZM67.5398 33.6877V35.4871H69.0566C69.5319 35.4871 69.896 35.0943 69.896 34.59C69.896 34.0858 69.5319 33.693 69.0566 33.693H67.5398V33.6877ZM69.2639 38.4171C69.7594 38.4171 70.1488 37.9978 70.1488 37.4617C70.1488 36.9256 69.7594 36.5062 69.2639 36.5062H67.5398V38.4225H69.2639V38.4171Z" fill="#103559"/>
<path id="Vector_9" d="M73.4213 37.5163C73.5825 38.2014 74.2106 38.5782 75.0611 38.5782C75.6448 38.5782 76.0839 38.3873 76.3841 38.0203L77.2957 38.4901C76.7954 39.1458 76.045 39.4737 75.0556 39.4737C74.2273 39.4737 73.5491 39.2486 73.0377 38.8082C72.5263 38.358 72.2706 37.7903 72.2706 37.1052C72.2706 36.4202 72.5263 35.8721 73.0266 35.4219C73.5269 34.9619 74.1828 34.7368 74.9722 34.7368C75.717 34.7368 76.3341 34.9717 76.8177 35.4317C77.3013 35.8917 77.5459 36.4593 77.5459 37.115C77.5459 37.2129 77.5347 37.3499 77.507 37.5212H73.4324L73.4213 37.5163ZM76.423 36.7235C76.2674 35.9944 75.6837 35.6127 74.9611 35.6127C74.1439 35.6127 73.5714 36.0385 73.4157 36.7235H76.4286H76.423Z" fill="#103559"/>
<path id="Vector_10" d="M79.6206 36.6815C80.3339 36.8334 81.2583 37.1224 81.2382 38.0874C81.2382 38.5185 81.0624 38.8613 80.7207 39.1063C80.3791 39.3512 79.9521 39.4737 79.4347 39.4737C78.5204 39.4737 77.8422 39.0769 77.5458 38.4205L78.4049 37.9355C78.5606 38.3666 78.9022 38.587 79.4297 38.587C79.9572 38.587 80.2184 38.4156 80.2184 38.0825C80.2184 37.7935 79.8316 37.622 79.3393 37.5045C78.646 37.333 77.7116 37.0636 77.7317 36.1133C77.7317 35.6969 77.8874 35.3638 78.214 35.114C78.5355 34.8593 78.9474 34.7368 79.4247 34.7368C80.1933 34.7368 80.8112 35.0895 81.1377 35.6773L80.2937 36.1378C80.138 35.7949 79.8416 35.6234 79.4247 35.6234C79.0479 35.6234 78.7515 35.7851 78.7515 36.1035C78.7515 36.4023 79.1383 36.5542 79.6206 36.6913V36.6815Z" fill="#103559"/>
<path id="Vector_11" d="M84.9312 35.5459H83.7224V37.8969C83.7224 38.5245 84.1306 38.5139 84.9312 38.4766V39.4287C83.3195 39.6255 82.6673 39.184 82.6673 37.9022V35.5512H81.7661V34.53H82.6673V33.4715L83.7224 33.1577V34.53H84.9312V35.5512V35.5459Z" fill="#103559"/>
</g>
<g id="Group_2">
<path id="Vector_12" d="M24.9886 3.21472C24.8505 1.85346 24.3036 1.5791 23.2416 1.5791H18.7175C17.7246 1.5791 17.4856 1.74794 17.1086 2.84011L13.7156 13.8726L10.3226 2.84011C9.94555 1.74794 9.7066 1.5791 8.71364 1.5791H4.18428C3.12229 1.5791 2.57537 1.85346 2.43731 3.21472L0.0372224 24.8735C-0.0636662 25.6543 0.00536284 25.9656 0.690344 26.0659L5.86752 26.8151C6.65339 26.9154 6.82862 26.7465 6.92951 26.1661L8.06052 16.02L10.4925 25.5224C10.7314 26.3033 11.0394 26.6146 11.8306 26.6146H15.6006C16.3865 26.6146 16.6998 26.3086 16.9387 25.5224L19.3388 16.02L20.5017 26.1661C20.6026 26.7465 20.7778 26.9154 21.5637 26.8151L26.7409 26.0659C27.4258 25.9656 27.4949 25.6596 27.394 24.8735L24.9886 3.21472Z" fill="#103559"/>
<path id="Vector_13" d="M37.4542 7.36865C31.644 7.36865 28.4863 11.351 28.4863 16.8423C28.4863 22.3337 31.644 26.316 37.4542 26.316C43.2643 26.316 46.422 22.3337 46.422 16.8423C46.422 11.351 43.2643 7.36865 37.4542 7.36865ZM37.4542 20.1195C36.0595 20.1195 35.3122 18.8128 35.3122 16.8372C35.3122 14.8615 36.0595 13.5548 37.4542 13.5548C38.8488 13.5548 39.5961 14.8615 39.5961 16.8372C39.5961 18.8128 38.8488 20.1195 37.4542 20.1195Z" fill="#103559"/>
<path id="Vector_14" d="M59.4518 7.37917C58.2608 7.37917 49.349 7.61581 48.7693 8.43092C48.5321 8.70438 48.5321 9.07775 48.5321 9.71933L48.8062 24.5175C48.8378 25.8743 49.1487 26.316 50.3345 26.316H54.4874C55.6784 26.316 56.0157 25.8743 56.0157 24.5175V14.2997C56.5269 14.1314 56.6956 14.0631 57.2753 14.0263C58.0553 13.9947 58.4294 14.2314 58.6719 14.8729C58.8405 15.5513 58.8774 16.5715 58.8774 17.9598L58.8458 24.5123C58.8458 25.869 59.22 26.3108 60.411 26.3108H64.664C65.8551 26.3108 66.1607 25.869 66.1924 24.5123L66.4664 15.4829C66.498 13.2743 66.0237 11.2391 64.9012 9.74562C63.7101 8.25213 61.9394 7.36865 59.4571 7.36865L59.4518 7.37917Z" fill="#103559"/>
<path id="Vector_15" d="M75.414 9.47363H71.1391C69.9695 9.47363 69.6331 9.877 69.6331 11.2338V24.5241C69.6331 25.8757 69.9695 26.3157 71.1391 26.3157H75.4813C76.6509 26.3157 77.0184 25.8757 77.0184 24.5241L76.9511 11.2338C76.9511 9.91367 76.5836 9.47363 75.414 9.47363Z" fill="#103559"/>
<path id="Vector_16" d="M73.5895 0.526367C71.0576 0.526367 69.6331 2.08547 69.6331 4.21058C69.6331 6.33569 71.0576 7.89479 73.5895 7.89479C76.1214 7.89479 77.5459 6.33569 77.5459 4.21058C77.5459 2.08547 76.1214 0.526367 73.5895 0.526367Z" fill="#103559"/>
<path id="Vector_17" d="M91.947 7.91984H89.3174V3.34421C89.3174 1.98886 88.9693 1.5791 87.7643 1.5791H83.6833C82.473 1.5791 82.0927 2.02038 82.0927 3.34421V7.91984H80.0201C78.8794 7.91984 78.6009 8.12472 78.6009 9.17538V12.8737C78.6009 13.9244 78.8794 14.1293 80.0201 14.1293H82.0927V20.5698C82.0927 24.909 84.4063 26.8423 88.7657 26.8423C90.0457 26.8423 91.3257 26.7424 92.5361 26.5008C93.0555 26.401 93.1948 26.2644 93.1948 25.7548L93.0234 20.5646C93.0234 20.1233 92.7824 19.9552 92.3326 20.055C91.9523 20.1548 91.5721 20.2231 91.0526 20.2231C90.0511 20.2231 89.3227 19.8816 89.3227 18.4265V14.1187H91.9523C93.093 14.1187 93.3715 13.9139 93.3715 12.8632V9.16488C93.3715 8.11422 93.093 7.90934 91.9523 7.90934L91.947 7.91984Z" fill="#103559"/>
<path id="Vector_18" d="M103.395 7.36865C97.5843 7.36865 94.4266 11.351 94.4266 16.8423C94.4266 22.3337 97.5843 26.316 103.395 26.316C109.205 26.316 112.362 22.3337 112.362 16.8423C112.362 11.351 109.205 7.36865 103.395 7.36865ZM103.395 20.1195C102 20.1195 101.253 18.8128 101.253 16.8372C101.253 14.8615 102 13.5548 103.395 13.5548C104.789 13.5548 105.537 14.8615 105.537 16.8372C105.537 18.8128 104.789 20.1195 103.395 20.1195Z" fill="#103559"/>
<path id="Vector_19" d="M114.03 8.11025C113.421 7.67049 112.422 7.92457 111.792 8.67704C111.161 9.4295 111.145 10.397 111.75 10.8367C112.359 11.2765 113.358 11.0224 113.988 10.2699C114.619 9.51745 114.634 8.55 114.03 8.11025Z" fill="#103559"/>
<path id="Vector_20" d="M99.6851 6.831C100.402 6.72097 100.871 5.81455 100.733 4.80334C100.594 3.79213 99.9075 3.05861 99.191 3.16864C98.4745 3.27867 98.0051 4.18509 98.1434 5.1963C98.2818 6.20751 98.9686 6.94103 99.6851 6.831Z" fill="#103559"/>
<path id="Vector_21" d="M108.969 7.76108C109.96 8.26147 111.461 7.31509 112.315 5.64531C113.169 3.97554 113.06 2.2133 112.063 1.71291C111.072 1.21252 109.571 2.15891 108.717 3.82868C107.863 5.49846 107.972 7.2607 108.969 7.76108Z" fill="#103559"/>
<path id="Vector_22" d="M103.837 6.30726C104.836 6.4344 105.805 5.12591 105.998 3.38834C106.191 1.64546 105.538 0.135674 104.534 0.0085342C103.535 -0.118606 102.566 1.18988 102.373 2.92745C102.18 4.67033 102.833 6.18012 103.837 6.30726Z" fill="#103559"/>
</g>
</g>
<defs>
<clipPath id="clip0_3982_1218">
<rect width="115" height="40" fill="white"/>
</clipPath>
</defs>
</svg>
