<svg width="18" height="18" viewBox="0 0 18 18" fill="none" xmlns="http://www.w3.org/2000/svg">
<g id="u:exclamation-circle">
<path id="Vector" d="M9 5.25C8.80109 5.25 8.61033 5.32902 8.46967 5.46967C8.32902 5.61032 8.25 5.80109 8.25 6V9C8.25 9.19891 8.32902 9.38968 8.46967 9.53033C8.61033 9.67098 8.80109 9.75 9 9.75C9.19892 9.75 9.38968 9.67098 9.53033 9.53033C9.67099 9.38968 9.75 9.19891 9.75 9V6C9.75 5.80109 9.67099 5.61032 9.53033 5.46967C9.38968 5.32902 9.19892 5.25 9 5.25ZM9.69 11.715C9.67359 11.6672 9.65089 11.6218 9.6225 11.58L9.5325 11.4675C9.42704 11.3634 9.29311 11.2929 9.14761 11.2649C9.00212 11.2369 8.85159 11.2526 8.715 11.31C8.62411 11.348 8.5404 11.4013 8.4675 11.4675C8.39799 11.5376 8.343 11.6207 8.30568 11.7121C8.26835 11.8034 8.24943 11.9013 8.25 12C8.25119 12.098 8.27157 12.1948 8.31 12.285C8.34369 12.3781 8.39743 12.4626 8.46742 12.5326C8.53741 12.6026 8.62193 12.6563 8.715 12.69C8.80478 12.7297 8.90185 12.7502 9 12.7502C9.09816 12.7502 9.19523 12.7297 9.285 12.69C9.37808 12.6563 9.4626 12.6026 9.53259 12.5326C9.60258 12.4626 9.65632 12.3781 9.69 12.285C9.72843 12.1948 9.74882 12.098 9.75 12C9.75368 11.9501 9.75368 11.8999 9.75 11.85C9.73709 11.8022 9.71685 11.7566 9.69 11.715ZM9 1.5C7.51664 1.5 6.0666 1.93987 4.83323 2.76398C3.59986 3.58809 2.63856 4.75943 2.07091 6.12987C1.50325 7.50032 1.35472 9.00832 1.64411 10.4632C1.9335 11.918 2.64781 13.2544 3.6967 14.3033C4.7456 15.3522 6.08197 16.0665 7.53683 16.3559C8.99168 16.6453 10.4997 16.4968 11.8701 15.9291C13.2406 15.3614 14.4119 14.4001 15.236 13.1668C16.0601 11.9334 16.5 10.4834 16.5 9C16.5 8.01509 16.306 7.03982 15.9291 6.12987C15.5522 5.21993 14.9997 4.39314 14.3033 3.6967C13.6069 3.00026 12.7801 2.44781 11.8701 2.0709C10.9602 1.69399 9.98492 1.5 9 1.5ZM9 15C7.81332 15 6.65328 14.6481 5.66658 13.9888C4.67989 13.3295 3.91085 12.3925 3.45673 11.2961C3.0026 10.1997 2.88378 8.99334 3.11529 7.82946C3.3468 6.66557 3.91825 5.59647 4.75736 4.75736C5.59648 3.91824 6.66558 3.3468 7.82946 3.11529C8.99335 2.88378 10.1997 3.0026 11.2961 3.45672C12.3925 3.91085 13.3295 4.67988 13.9888 5.66658C14.6481 6.65327 15 7.81331 15 9C15 10.5913 14.3679 12.1174 13.2426 13.2426C12.1174 14.3679 10.5913 15 9 15Z" fill="#FF564F"/>
</g>
</svg>
