<svg width="20" height="20" viewBox="0 0 20 20" fill="none" xmlns="http://www.w3.org/2000/svg">
<g id="u:eye-slash">
<path id="Vector" d="M9.11674 5.06668C9.40904 5.02187 9.70436 4.99959 10.0001 5.00001C12.6501 5.00001 15.1417 6.90834 16.5917 10C16.37 10.4705 16.1195 10.9269 15.8417 11.3667C15.7536 11.5032 15.7072 11.6625 15.7084 11.825C15.7103 12.0069 15.7716 12.1831 15.883 12.3269C15.9944 12.4707 16.1497 12.5741 16.3254 12.6213C16.501 12.6685 16.6873 12.6569 16.8557 12.5884C17.0242 12.5199 17.1656 12.3981 17.2584 12.2417C17.6467 11.6316 17.9839 10.9906 18.2667 10.325C18.3114 10.221 18.3345 10.109 18.3345 9.99584C18.3345 9.88266 18.3114 9.77066 18.2667 9.66668C16.5834 5.75835 13.4167 3.33335 10.0001 3.33335C9.60896 3.33137 9.21848 3.36484 8.83341 3.43335C8.72397 3.45195 8.61927 3.49193 8.52529 3.55099C8.4313 3.61006 8.34987 3.68706 8.28564 3.7776C8.22142 3.86813 8.17565 3.97043 8.15096 4.07866C8.12627 4.18688 8.12314 4.29891 8.14174 4.40835C8.16034 4.51778 8.20032 4.62248 8.25939 4.71646C8.31845 4.81045 8.39545 4.89188 8.48599 4.95611C8.57653 5.02033 8.67883 5.0661 8.78705 5.09079C8.89528 5.11548 9.0073 5.11862 9.11674 5.10001V5.06668ZM3.09174 1.90835C3.01404 1.83065 2.9218 1.76901 2.82028 1.72696C2.71876 1.68491 2.60996 1.66327 2.50007 1.66327C2.39019 1.66327 2.28138 1.68491 2.17987 1.72696C2.07835 1.76901 1.98611 1.83065 1.90841 1.90835C1.75149 2.06527 1.66333 2.27809 1.66333 2.50001C1.66333 2.72193 1.75149 2.93476 1.90841 3.09168L4.49174 5.66668C3.31305 6.80129 2.37495 8.16167 1.73341 9.66668C1.68752 9.77182 1.66384 9.8853 1.66384 10C1.66384 10.1147 1.68752 10.2282 1.73341 10.3333C3.41674 14.2417 6.58341 16.6667 10.0001 16.6667C11.4977 16.6563 12.9599 16.2104 14.2084 15.3833L16.9084 18.0917C16.9859 18.1698 17.078 18.2318 17.1796 18.2741C17.2811 18.3164 17.3901 18.3382 17.5001 18.3382C17.6101 18.3382 17.719 18.3164 17.8206 18.2741C17.9221 18.2318 18.0143 18.1698 18.0917 18.0917C18.1698 18.0142 18.2318 17.922 18.2741 17.8205C18.3165 17.7189 18.3382 17.61 18.3382 17.5C18.3382 17.39 18.3165 17.2811 18.2741 17.1795C18.2318 17.078 18.1698 16.9858 18.0917 16.9083L3.09174 1.90835ZM8.39174 9.56668L10.4334 11.6083C10.2926 11.6487 10.1466 11.6684 10.0001 11.6667C9.55804 11.6667 9.13412 11.4911 8.82156 11.1785C8.509 10.866 8.33341 10.442 8.33341 10C8.3317 9.8535 8.35135 9.70752 8.39174 9.56668ZM10.0001 15C7.35007 15 4.85841 13.0917 3.41674 10C3.95515 8.81147 4.7193 7.73883 5.66674 6.84168L7.14174 8.33334C6.79528 8.96568 6.66319 9.6933 6.76529 10.4071C6.86739 11.1208 7.19817 11.7822 7.70801 12.2921C8.21785 12.8019 8.87927 13.1327 9.59303 13.2348C10.3068 13.3369 11.0344 13.2048 11.6667 12.8583L12.9917 14.1667C12.0843 14.7007 11.0529 14.988 10.0001 15Z" fill="#667479"/>
</g>
</svg>
