<svg width="32" height="32" viewBox="0 0 32 32" fill="#575350" xmlns="http://www.w3.org/2000/svg">
                            <path d="M20.8001 15.9996C20.8001 17.2727 20.2944 18.4936 19.3942 19.3938C18.4941 20.2939 17.2732 20.7996 16.0001 20.7996C14.7271 20.7996 13.5062 20.2939 12.606 19.3938C11.7058 18.4936 11.2001 17.2727 11.2001 15.9996C11.2001 15.726 11.2289 15.4588 11.2785 15.1996H9.60014V21.5948C9.60014 22.0396 9.96014 22.3996 10.4049 22.3996H21.5969C21.8101 22.3992 22.0144 22.3142 22.165 22.1634C22.3156 22.0125 22.4001 21.808 22.4001 21.5948V15.1996H20.7217C20.7713 15.4588 20.8001 15.726 20.8001 15.9996ZM16.0001 19.1996C16.4205 19.1995 16.8367 19.1166 17.225 18.9557C17.6133 18.7947 17.9661 18.5589 18.2632 18.2616C18.5604 17.9643 18.796 17.6114 18.9568 17.223C19.1176 16.8346 19.2002 16.4184 19.2001 15.998C19.2 15.5777 19.1171 15.1615 18.9562 14.7732C18.7952 14.3849 18.5594 14.0321 18.2621 13.735C17.9648 13.4378 17.6119 13.2021 17.2235 13.0414C16.8351 12.8806 16.4189 12.7979 15.9985 12.798C15.1496 12.7983 14.3356 13.1357 13.7355 13.7361C13.1353 14.3365 12.7983 15.1507 12.7985 15.9996C12.7987 16.8486 13.1362 17.6626 13.7366 18.2627C14.337 18.8628 15.1512 19.1999 16.0001 19.1996ZM19.8401 12.6396H21.7585C21.886 12.6396 22.0082 12.5891 22.0985 12.4992C22.1888 12.4092 22.2397 12.2871 22.2401 12.1596V10.2412C22.2401 10.1135 22.1894 9.99102 22.0991 9.90071C22.0088 9.81039 21.8863 9.75965 21.7585 9.75965H19.8401C19.7124 9.75965 19.5899 9.81039 19.4996 9.90071C19.4093 9.99102 19.3585 10.1135 19.3585 10.2412V12.1596C19.3601 12.4236 19.5761 12.6396 19.8401 12.6396ZM16.0001 0.639648C11.9264 0.639648 8.01953 2.25793 5.13898 5.13849C2.25842 8.01905 0.640137 11.9259 0.640137 15.9996C0.640137 20.0734 2.25842 23.9802 5.13898 26.8608C8.01953 29.7414 11.9264 31.3596 16.0001 31.3596C18.0172 31.3596 20.0146 30.9623 21.8782 30.1904C23.7417 29.4185 25.435 28.2871 26.8613 26.8608C28.2876 25.4345 29.419 23.7412 30.1909 21.8777C30.9628 20.0141 31.3601 18.0168 31.3601 15.9996C31.3601 13.9825 30.9628 11.9852 30.1909 10.1216C29.419 8.25807 28.2876 6.5648 26.8613 5.13849C25.435 3.71218 23.7417 2.58077 21.8782 1.80886C20.0146 1.03695 18.0172 0.639648 16.0001 0.639648ZM24.0001 22.222C24.0001 23.1996 23.2001 23.9996 22.2225 23.9996H9.77774C8.80014 23.9996 8.00014 23.1996 8.00014 22.222V9.77725C8.00014 8.79965 8.80014 7.99965 9.77774 7.99965H22.2225C23.2001 7.99965 24.0001 8.79965 24.0001 9.77725V22.222Z"></path>
                        </svg>