<svg width="32" height="32" viewBox="0 0 32 32" fill="#575350" xmlns="http://www.w3.org/2000/svg">
                            <path d="M16.0001 0.639648C7.51694 0.639648 0.640137 7.51645 0.640137 15.9996C0.640137 24.4828 7.51694 31.3596 16.0001 31.3596C24.4833 31.3596 31.3601 24.4828 31.3601 15.9996C31.3601 7.51645 24.4833 0.639648 16.0001 0.639648ZM22.2481 13.222C22.2545 13.3532 22.2561 13.4844 22.2561 13.6124C22.2561 17.6124 19.2145 22.222 13.6497 22.222C12.0054 22.2248 10.3953 21.7525 9.01294 20.862C9.24814 20.8908 9.48974 20.902 9.73454 20.902C11.1521 20.902 12.4561 20.4204 13.4913 19.6076C12.8605 19.5953 12.2492 19.3864 11.7427 19.0101C11.2362 18.6338 10.8597 18.1089 10.6657 17.5084C11.1188 17.5946 11.5855 17.5765 12.0305 17.4556C11.3458 17.3172 10.7301 16.9462 10.2877 16.4055C9.84528 15.8649 9.60351 15.1878 9.60334 14.4892V14.4524C10.0113 14.678 10.4785 14.8156 10.9745 14.8316C10.3326 14.4043 9.87819 13.7479 9.70421 12.9967C9.53022 12.2454 9.64982 11.4561 10.0385 10.79C10.7985 11.7244 11.7462 12.4888 12.8202 13.0337C13.8943 13.5786 15.0709 13.8919 16.2737 13.9532C16.1208 13.3041 16.1866 12.6227 16.461 12.0149C16.7353 11.407 17.2027 10.9068 17.7906 10.5921C18.3786 10.2773 19.054 10.1656 19.712 10.2743C20.3699 10.383 20.9735 10.7061 21.4289 11.1932C22.106 11.0593 22.7553 10.8109 23.3489 10.4588C23.1233 11.1599 22.6508 11.7551 22.0193 12.134C22.6191 12.0618 23.2047 11.9006 23.7569 11.6556C23.3513 12.2635 22.8404 12.7939 22.2481 13.222Z"></path>
                        </svg>