<svg width="32" height="32" viewBox="0 0 32 32" fill="#575350" xmlns="http://www.w3.org/2000/svg">
                            <path d="M18.5644 15.7324L14.9708 14.0556C14.6572 13.91 14.3996 14.0732 14.3996 14.4204V17.5788C14.3996 17.926 14.6572 18.0892 14.9708 17.9436L18.5628 16.2668C18.878 16.1196 18.878 15.8796 18.5644 15.7324ZM15.9996 0.639648C7.51645 0.639648 0.639648 7.51645 0.639648 15.9996C0.639648 24.4828 7.51645 31.3596 15.9996 31.3596C24.4828 31.3596 31.3596 24.4828 31.3596 15.9996C31.3596 7.51645 24.4828 0.639648 15.9996 0.639648ZM15.9996 22.2396C8.13725 22.2396 7.99965 21.5308 7.99965 15.9996C7.99965 10.4684 8.13725 9.75965 15.9996 9.75965C23.862 9.75965 23.9996 10.4684 23.9996 15.9996C23.9996 21.5308 23.862 22.2396 15.9996 22.2396Z"></path>
                        </svg>