<?xml version="1.0" encoding="UTF-8"?>
<!DOCTYPE svg PUBLIC "-//W3C//DTD SVG 1.1//EN" "http://www.w3.org/Graphics/SVG/1.1/DTD/svg11.dtd">
<svg xmlns="http://www.w3.org/2000/svg" version="1.1" width="256px" height="256px" style="shape-rendering:geometricPrecision; text-rendering:geometricPrecision; image-rendering:optimizeQuality; fill-rule:evenodd; clip-rule:evenodd" xmlns:xlink="http://www.w3.org/1999/xlink">
<g><path style="opacity:0.975" fill="#000000" d="M 255.5,48.5 C 255.5,51.5 255.5,54.5 255.5,57.5C 245.072,91.9653 234.905,126.632 225,161.5C 223.833,162.667 222.667,163.833 221.5,165C 176.833,165.333 132.167,165.667 87.5,166C 83.2499,171.144 83.9166,175.478 89.5,179C 133.5,179.333 177.5,179.667 221.5,180C 226.381,184.375 226.715,189.042 222.5,194C 213.935,195.275 205.268,195.942 196.5,196C 208.612,201.729 213.112,211.229 210,224.5C 204.087,238.038 193.921,242.871 179.5,239C 167.388,233.271 162.888,223.771 166,210.5C 168.072,203.427 172.572,198.594 179.5,196C 159.833,195.333 140.167,195.333 120.5,196C 132.151,201.009 136.984,209.842 135,222.5C 129.04,238.608 117.873,243.775 101.5,238C 88.6589,228.785 86.1589,217.285 94,203.5C 96.7425,199.884 100.242,197.384 104.5,196C 97.4211,195.886 90.4211,195.219 83.5,194C 71.0251,187.88 66.5251,178.047 70,164.5C 72.5055,161.181 73.5055,157.514 73,153.5C 61.3333,112.833 49.6667,72.1667 38,31.5C 26.9095,30.6782 15.7429,30.1782 4.5,30C 2.67694,29.0027 1.01027,27.8361 -0.5,26.5C -0.5,23.8333 -0.5,21.1667 -0.5,18.5C 0.639972,17.1986 1.97331,16.0319 3.5,15C 17.8333,14.3333 32.1667,14.3333 46.5,15C 48.286,15.7845 49.786,16.9512 51,18.5C 53.6031,26.8089 56.1031,35.1422 58.5,43.5C 122.497,44.3333 186.497,44.8333 250.5,45C 252.323,45.9973 253.99,47.1639 255.5,48.5 Z"/></g>
</svg>
