<svg width="24" height="24" viewBox="0 0 24 24" fill="none" xmlns="http://www.w3.org/2000/svg">
<path d="M16 8C16 5.79086 14.2091 4 12 4C9.79086 4 8 5.79086 8 8M20.3786 11.7261L19.4453 17.3261C19.287 18.276 19.2077 18.751 18.9707 19.1074C18.7618 19.4216 18.4685 19.6704 18.1242 19.8248C17.7337 20 17.2524 20 16.2893 20H7.71094C6.74787 20 6.26653 20 5.87598 19.8248C5.5317 19.6704 5.23815 19.4216 5.02921 19.1074C4.79218 18.751 4.71276 18.276 4.55443 17.3261L3.62109 11.7261C3.40744 10.4441 3.30045 9.80313 3.486 9.30359C3.64882 8.86522 3.96058 8.49781 4.36621 8.26514C4.82845 8 5.47772 8 6.77734 8H17.2224C18.522 8 19.1721 8 19.6343 8.26514C20.04 8.49781 20.351 8.86522 20.5138 9.30359C20.6994 9.80313 20.5923 10.4441 20.3786 11.7261Z" stroke="white" stroke-width="2" stroke-linecap="round" stroke-linejoin="round"/>
</svg>
