<svg xmlns:dc="http://purl.org/dc/elements/1.1/" xmlns:cc="http://creativecommons.org/ns#" xmlns:rdf="http://www.w3.org/1999/02/22-rdf-syntax-ns#" xmlns:svg="http://www.w3.org/2000/svg" xmlns="http://www.w3.org/2000/svg" xmlns:xlink="http://www.w3.org/1999/xlink" id="svg745392" viewBox="0 0 1024 768" height="768px" width="1024px" version="1.1">
  <metadata id="metadata745398">
    <rdf:rdf>
      <cc:work rdf:about="">
        <dc:format>image/svg+xml</dc:format>
        <dc:type rdf:resource="http://purl.org/dc/dcmitype/StillImage"></dc:type>
      </cc:work>
    </rdf:rdf>
  </metadata>
  <defs id="defs745396"></defs>
  <linearGradient spreadMethod="pad" y2="30%" x2="-10%" y1="120%" x1="30%" id="3d_gradient2-logo-1d72dc43-baac-42f5-9abd-a44c61dd8a1f">
    <stop id="stop745373" stop-opacity="1" stop-color="#ffffff" offset="0%"></stop>
    <stop id="stop745375" stop-opacity="1" stop-color="#000000" offset="100%"></stop>
  </linearGradient>
  <linearGradient gradientTransform="rotate(-30)" spreadMethod="pad" y2="30%" x2="-10%" y1="120%" x1="30%" id="3d_gradient3-logo-1d72dc43-baac-42f5-9abd-a44c61dd8a1f">
    <stop id="stop745378" stop-opacity="1" stop-color="#ffffff" offset="0%"></stop>
    <stop id="stop745380" stop-opacity="1" stop-color="#cccccc" offset="50%"></stop>
    <stop id="stop745382" stop-opacity="1" stop-color="#000000" offset="100%"></stop>
  </linearGradient>
  <g id="logo-group">
    <image xlink:href="" id="container" x="272" y="144" width="480" height="480" style="display: none;" transform="translate(0 0)"></image>
    <g id="logo-center" transform="translate(121.344 0)">
      <image xlink:href="" id="icon_container" style="display: none;" x="0" y="0"></image>
      <g id="slogan" style="font-style:normal;font-weight:700;font-size:32px;line-height:1;font-family:'Brandmark1 Bold Color';font-variant-ligatures:none;text-align:center;text-anchor:middle" transform="translate(0 0)"></g>
      <g id="title" style="font-style:normal;font-weight:700;font-size:72px;line-height:1;font-family:'Brandmark1 Bold Color';font-variant-ligatures:normal;text-align:center;text-anchor:middle" transform="translate(0 0)">
        <g id="path745401" aria-label="B" transform="translate(0 331.408) translate(50 -3.6400000000000006) scale(2) translate(-356.48787 53.64)"> <path class="c1" d="M79.62231,71.91748h19.22607c5.68066,0,10.19531,1.15186,13.42188,3.42041 c1.81445,1.27441,3.21094,2.90186,4.1543,4.83154c0.9502,1.95117,1.43262,4.2124,1.43262,6.7251 c0,3.06055-0.82813,5.94043-2.39746,8.3457c-0.71289,1.09424-1.56934,2.06641-2.55664,2.91602 c1.43359,0.81396,2.69336,1.83643,3.75879,3.03174c2.42676,2.74316,3.71582,6.36523,3.71582,10.47656 c0,4.9043-1.74219,9.01563-5.04785,11.90234c-3.44141,2.99609-8.33105,4.51563-14.53809,4.51563H79.62231V71.91748z M104.4353,92.56152c1.3252-0.94336,1.97363-2.39795,1.97363-4.44287c0-2.60645-1.21777-3.58594-1.61328-3.90283 c-1.33203-1.07275-3.60742-1.6416-6.58105-1.6416l-7.2876,0.05029v11.32666h7.99268 C101.25269,93.95117,103.16089,93.46875,104.4353,92.56152z M106.76831,115.71143c1.36133-1.00781,2.0166-2.49805,2.0166-4.55078 c0-2.12402-0.67676-3.68652-2.08105-4.78809c-1.5918-1.24609-4.15527-1.9082-7.42383-1.9082H90.927V117.354h9.28857 C103.0603,117.354,105.32104,116.78467,106.76831,115.71143z" transform="translate(276.86556 -125.55748)" stroke-width="0" stroke-linejoin="miter" stroke-miterlimit="2" fill="#152848" stroke="#152848"></path> </g>
        <g id="path745403" aria-label="K" transform="translate(0 331.408) translate(149.40625999999997 -3.6400000000000006) scale(2) translate(-402.191 53.64)"> <polygon class="c1" points="108.10376,71.91748 88.48218,95.62207 88.48218,71.91748 77.17749,71.91748 77.17749,128.08252 88.48218,128.08252 88.48218,112.30518 122.80005,71.91748 " transform="translate(325.01351 -125.55748)" stroke-width="0" stroke-linejoin="miter" stroke-miterlimit="2" fill="#152848" stroke="#152848"></polygon> <polygon class="c3" points="112.71143,114.24286 98.67279,114.24286 108.73071,128.08252 122.82251,128.08252 " transform="translate(325.01351 -125.55748)" stroke-width="0" stroke-linejoin="miter" stroke-miterlimit="2" fill="#bc3b3b" stroke="#bc3b3b"></polygon> </g>
        <g id="path745405" aria-label="M" transform="translate(0 331.408) translate(250.49999999999994 -3.6400000000000006) scale(2) translate(-448.73787 53.64)"> <path class="c1" d="M116.38086,95.7229l-12.80273,22.0625H96.4209L83.69043,95.84546v32.23682H72.31348V71.91772h10.3252 l17.39746,30.60254l17.39648-30.60254h10.25391v56.16455h-11.30566V95.7229z" transform="translate(376.42439 -125.55772)" stroke-width="0" stroke-linejoin="miter" stroke-miterlimit="2" fill="#152848" stroke="#152848"></path> </g>
        <g id="path745407" aria-label="E" transform="translate(0 331.408) translate(384.5 -3.6400000000000006) scale(2) translate(-511.73787 53.64)"> <path class="c1" d="M81.8186,128.08252h36.36279v-10.51367H81.8186V128.08252z M81.8186,105.47217h36.36279v-10.729H81.8186 V105.47217z M81.8186,71.91748v10.729h36.36279v-10.729H81.8186z" transform="translate(429.91927 -125.55748)" stroke-width="0" stroke-linejoin="miter" stroke-miterlimit="2" fill="#152848" stroke="#152848"></path> </g>
        <g id="path745409" aria-label="D" transform="translate(0 331.408) translate(478.00001999999995 -3.6400000000000006) scale(2) translate(-554.48788 53.64)"> <path class="c1" d="M76.5979,128.11865v-56.2373h18.43311c3.81641,0,7.51758,0.72705,11.00293,2.16748 c3.38477,1.39648,6.42285,3.40576,9.02246,5.96191c2.61426,2.5708,4.67285,5.58057,6.10645,8.93604 c1.4834,3.47803,2.23926,7.18604,2.23926,11.01709c0,3.83057-0.75586,7.53906-2.23926,11.02393 c-1.43359,3.36328-3.48535,6.37305-6.09961,8.95703c-2.60645,2.57129-5.6377,4.58789-9.02246,5.99219 c-3.48438,1.44727-7.19336,2.18164-11.00977,2.18164H76.5979z M95.03101,116.81299c4.58691,0,8.87891-1.74219,12.09766-4.91797 c3.2041-3.16113,4.96777-7.40234,4.96777-11.93115c0-4.52197-1.76367-8.7417-4.96094-11.88818 c-3.21094-3.1543-7.50977-4.88965-12.10449-4.88965h-7.12842v33.62695H95.03101z" transform="translate(477.88998 -125.52135)" stroke-width="0" stroke-linejoin="miter" stroke-miterlimit="2" fill="#152848" stroke="#152848"></path> </g>
        <g id="path745411" aria-label="I" transform="translate(0 331.408) translate(591.34502 -3.6400000000000006) scale(2) translate(-607.16038 53.64)"> <path class="c1" d="M94.34741,75.51758l11.30518-3.6001v56.16504H94.34741V75.51758z" transform="translate(512.81297 -125.55748)" stroke-width="0" stroke-linejoin="miter" stroke-miterlimit="2" fill="#152848" stroke="#152848"></path> </g>
        <g id="path745413" aria-label="A" transform="translate(0 331.408) translate(626.62402 -3.6400000000000006) scale(2) translate(-620.79988 53.64)"> <polygon class="c1" points="104.82788,71.91748 95.08569,71.91748 73.80786,128.08252 85.77515,128.08252 99.93921,89.14844 114.22534,128.08252 126.19214,128.08252 " transform="translate(546.99202 -125.55748)" stroke-width="0" stroke-linejoin="miter" stroke-miterlimit="2" fill="#152848" stroke="#152848"></polygon> <polygon class="c3" points="100.03819,128.08252 91.09854,114.24284 108.90146,114.24284 " transform="translate(546.99202 -125.55748)" stroke-width="0" stroke-linejoin="miter" stroke-miterlimit="2" fill="#bc3b3b" stroke="#bc3b3b"></polygon> </g>
             </g>
      <image xlink:href="" id="icon" style="display: none;" x="0" y="0"></image>
    </g>
  </g>
</svg>