<?xml version="1.0" encoding="utf-8"?>
<!-- Generator: Adobe Illustrator 25.4.1, SVG Export Plug-In . SVG Version: 6.00 Build 0)  -->
<svg version="1.1"
	 id="svg2" inkscape:version="1.0.2-2 (e86c870879, 2021-01-15)" sodipodi:docname="Ankara_metropolitan_municipality.svg" xmlns:cc="http://creativecommons.org/ns#" xmlns:dc="http://purl.org/dc/elements/1.1/" xmlns:inkscape="http://www.inkscape.org/namespaces/inkscape" xmlns:rdf="http://www.w3.org/1999/02/22-rdf-syntax-ns#" xmlns:sodipodi="http://sodipodi.sourceforge.net/DTD/sodipodi-0.dtd" xmlns:svg="http://www.w3.org/2000/svg"
	 xmlns="http://www.w3.org/2000/svg" xmlns:xlink="http://www.w3.org/1999/xlink" x="0px" y="0px" viewBox="0 0 520 870.7"
	 style="enable-background:new 0 0 520 870.7;" xml:space="preserve">
<style type="text/css">
	.st0{fill:#083F89;}
	.st1{fill:#FFFFFF;}
	.st2{fill:#02ABE6;}
	.st3{font-family:'Arial-Black';}
	.st4{font-size:9.0496px;}
	.st5{font-family:'Calibri';}
	.st6{font-size:1.8735px;}
</style>
<sodipodi:namedview  bordercolor="#666666" borderopacity="1" fit-margin-bottom="10" fit-margin-left="10" fit-margin-right="10" fit-margin-top="10" gridtolerance="10" guidetolerance="10" id="namedview4" inkscape:current-layer="g10" inkscape:cx="588.14794" inkscape:cy="345.92792" inkscape:document-rotation="0" inkscape:pageopacity="0" inkscape:pageshadow="2" inkscape:window-height="1057" inkscape:window-maximized="1" inkscape:window-width="1920" inkscape:window-x="-8" inkscape:window-y="-8" inkscape:zoom="0.39569883" lock-margins="true" objecttolerance="10" pagecolor="#ffffff" showgrid="false">
	</sodipodi:namedview>
<g id="g10" transform="translate(981.07342,-22.55296)" inkscape:groupmode="layer" inkscape:label="Image">
	<path id="path837" class="st0" d="M-730.6,513.7c-3.2-0.3-6.6-1.1-9.3-2.1c-10.5-4.1-18.4-13.2-20.7-24.2
		c-0.7-3.3-0.7-0.3-0.7-40.8l0-37h33.4h33.4l0,37.1c0,34.9,0,37.2-0.3,38.4c-0.9,5.4-2.5,9.5-5.3,13.7c-5.4,8.3-14.3,13.7-24.3,14.9
		C-725.6,513.8-729.4,513.8-730.6,513.7L-730.6,513.7z"/>
	<path id="path1214" class="st1" d="M-753.1,462.6v18.7c0,9,4.7,17.3,12.5,21.8c7.8,4.5,17.4,4.5,25.1,0s12.5-12.8,12.5-21.8v-18.7
		h-5.7v4.1h-1.8v-4.1h-1.8v1.1h-1.8v-1.1H-742v1.1h-1.8v-1.1h-1.8v4.1h-1.8v-4.1H-753.1z M-743.8,464.9h1.8v1.8h-1.8V464.9z
		 M-714,464.9h1.8v1.8h-1.8V464.9z"/>
	<circle id="path1199" class="st0" cx="-728" cy="486.9" r="20.4"/>
	
		<path id="circle1201" sodipodi:arc-type="slice" sodipodi:cx="721.07343" sodipodi:cy="-487.37381" sodipodi:end="3.1415927" sodipodi:rx="104.53355" sodipodi:ry="104.53355" sodipodi:start="0" sodipodi:type="arc" class="st2" d="
		M-742,460.9c0-5,2.7-9.6,7-12.1s9.6-2.5,14,0s7,7.1,7,12.1h-14H-742z"/>
	<g id="g1317" transform="matrix(0.95030505,0,0,0.95030505,-48.257443,1.6177167)">
		
			<path id="path1203" inkscape:transform-center-x="-9.4642758e-06" inkscape:transform-center-y="0.36607862" sodipodi:nodetypes="ccccccccccc" class="st1" d="
			M-719.3,458.6l-5.8-1.9l-1.7-3.2l-1.6,2l-5.6-1.5l4.4,3.5l-1.8,2.4l4.5-0.3l4.9,3.4l-1.7-3.8L-719.3,458.6z"/>
		
			<path id="path1206" inkscape:transform-center-x="-8.5519965e-06" inkscape:transform-center-y="0.30667325" sodipodi:nodetypes="ccccccccccc" class="st1" d="
			M-706,456.2l-4.8-1.6l-1.5-2.7l-1.4,1.6l-4.9-1.3l3.9,3l-1.5,2l3.6-0.4l4.2,3l-1.4-3.2L-706,456.2z"/>
		
			<path id="path1208" inkscape:transform-center-x="0.52805484" inkscape:transform-center-y="-0.39693267" sodipodi:nodetypes="ccccccccccc" class="st1" d="
			M-697.7,451.6l-4.1-1.3l-1.2-2.3l-1,1.7l-4-1l3.1,2.3l-0.9,1.7l2.9-0.3l3,2l-1-2.4L-697.7,451.6z"/>
		
			<path id="path1210" inkscape:transform-center-x="0.45616783" inkscape:transform-center-y="-0.34289454" sodipodi:nodetypes="ccccccccccc" class="st1" d="
			M-695.1,445.3l-3.1-0.8l-1.2-1.8l-0.7,1.3l-3.2-0.8l2.4,1.8l-0.6,1.3l2.4-0.4l2.6,1.7l-0.9-1.8L-695.1,445.3z"/>
		
			<path id="path1212" inkscape:transform-center-x="0.6807351" inkscape:transform-center-y="-0.67151807" sodipodi:nodetypes="ccccccccccc" class="st1" d="
			M-699.3,439.5l-2.5-0.5l-0.7-1.1l-0.7,0.8l-2.5-0.4l2,1.3l-0.5,1.1l1.7-0.5l2.2,1.2l-0.7-1.3L-699.3,439.5z"/>
	</g>
	<rect id="rect1216" x="-753.1" y="435.2" class="st1" width="5.7" height="10.9"/>
	<rect id="rect1218" x="-756.2" y="447.7" class="st1" width="11.9" height="2.5"/>
	<rect id="rect1220" x="-753.1" y="455.6" class="st1" width="5.7" height="5.7"/>
	<path id="path1224" inkscape:transform-center-y="-51.206446" sodipodi:nodetypes="ccccc" class="st2" d="M-722.6,474l0.9,18h-12.7
		l0.9-18H-722.6z"/>
	
		<path id="path1192" inkscape:flatsided="false" inkscape:randomized="0" inkscape:rounded="0" inkscape:transform-center-x="-1.2274229e-05" inkscape:transform-center-y="-8.7090329" sodipodi:arg1="0.26179939" sodipodi:arg2="0.89011792" sodipodi:cx="308.09033" sodipodi:cy="1161.1738" sodipodi:r1="212.29619" sodipodi:r2="81.32032" sodipodi:sides="5" sodipodi:type="star" class="st1" d="
		M-716.6,491.9l-8.7,0l-2.7-8.4l-2.7,8.4l-8.7,0l7.1,5.2l-2.7,8.4l7.1-5.2l7.1,5.2l-2.7-8.4L-716.6,491.9z"/>
	
		<path id="path1226" inkscape:flatsided="true" inkscape:randomized="0" inkscape:rounded="0" inkscape:transform-center-x="3.6370581e-06" inkscape:transform-center-y="-22.026505" sodipodi:arg1="0.52359878" sodipodi:arg2="1.5707963" sodipodi:cx="431.5" sodipodi:cy="608" sodipodi:r1="238.4502" sodipodi:r2="119.2251" sodipodi:sides="3" sodipodi:type="star" class="st2" d="
		M-725.8,460.3h-4.3l2.2-17.7L-725.8,460.3z"/>
	<path id="rect1229" class="st2" d="M-737.2,470.3v1.1h2.3v1.5h13.7v-1.5h2.3v-1.1H-737.2z"/>
	<path id="rect1233" class="st2" d="M-740.1,463.7l6.7,4.1h0v1.5h10.8v-1.5h0l6.7-4.1H-740.1z"/>
	<path id="path1237" inkscape:transform-center-y="7.5216709" sodipodi:nodetypes="ccccc" class="st1" d="M-747.3,454.4l3-2.6h-11.9
		l3,2.6H-747.3z"/>
	
		<path id="path1239" inkscape:flatsided="true" inkscape:randomized="0" inkscape:rounded="0" inkscape:transform-center-y="-19.0061" sodipodi:arg1="0.52359878" sodipodi:arg2="1.5707963" sodipodi:cx="431.5" sodipodi:cy="608" sodipodi:r1="238.4502" sodipodi:r2="119.2251" sodipodi:sides="3" sodipodi:type="star" class="st1" d="
		M-747.4,433.7h-5.7l2.9-15.2L-747.4,433.7z"/>
	<rect id="rect1321" x="-708.6" y="435.2" class="st1" width="5.7" height="10.9"/>
	<rect id="rect1323" x="-711.7" y="447.7" class="st1" width="11.9" height="2.5"/>
	<rect id="rect1325" x="-708.6" y="455.6" class="st1" width="5.7" height="5.7"/>
	<path id="path1327" inkscape:transform-center-y="7.5216709" sodipodi:nodetypes="ccccc" class="st1" d="M-702.8,454.4l3-2.6h-11.9
		l3,2.6H-702.8z"/>
	
		<path id="path1329" inkscape:flatsided="true" inkscape:randomized="0" inkscape:rounded="0" inkscape:transform-center-x="8.2443855e-06" inkscape:transform-center-y="-19.0061" sodipodi:arg1="0.52359878" sodipodi:arg2="1.5707963" sodipodi:cx="431.5" sodipodi:cy="608" sodipodi:r1="238.4502" sodipodi:r2="119.2251" sodipodi:sides="3" sodipodi:type="star" class="st1" d="
		M-702.9,433.7h-5.7l2.9-15.2L-702.9,433.7z"/>
	<text transform="matrix(1.5449 0 0 1 -761.4098 406.5437)" class="st0 st3 st4">ANKARA</text>
	<text transform="matrix(1 0 0 1 -722.4098 406.0144)" class="st5 st6"> </text>
</g>
</svg>
