<?xml version="1.0" encoding="UTF-8" standalone="no"?>
<svg
   xmlns:dc="http://purl.org/dc/elements/1.1/"
   xmlns:cc="http://creativecommons.org/ns#"
   xmlns:rdf="http://www.w3.org/1999/02/22-rdf-syntax-ns#"
   xmlns:svg="http://www.w3.org/2000/svg"
   xmlns="http://www.w3.org/2000/svg"
   xmlns:sodipodi="http://sodipodi.sourceforge.net/DTD/sodipodi-0.dtd"
   xmlns:inkscape="http://www.inkscape.org/namespaces/inkscape"
   version="1.1"
   id="svg2"
   width="520"
   height="870.74835"
   viewBox="0 0 520 870.74835"
   sodipodi:docname="Ankara_metropolitan_municipality.svg"
   inkscape:version="1.0.2-2 (e86c870879, 2021-01-15)">
  <metadata
     id="metadata8">
    <rdf:RDF>
      <cc:Work
         rdf:about="">
        <dc:format>image/svg+xml</dc:format>
        <dc:type
           rdf:resource="http://purl.org/dc/dcmitype/StillImage" />
        <dc:title></dc:title>
      </cc:Work>
    </rdf:RDF>
  </metadata>
  <defs
     id="defs6">
    <pattern
       id="EMFhbasepattern"
       patternUnits="userSpaceOnUse"
       width="6"
       height="6"
       x="0"
       y="0" />
  </defs>
  <sodipodi:namedview
     pagecolor="#ffffff"
     bordercolor="#666666"
     borderopacity="1"
     objecttolerance="10"
     gridtolerance="10"
     guidetolerance="10"
     inkscape:pageopacity="0"
     inkscape:pageshadow="2"
     inkscape:window-width="1920"
     inkscape:window-height="1057"
     id="namedview4"
     showgrid="false"
     inkscape:zoom="0.39569883"
     inkscape:cx="588.14794"
     inkscape:cy="345.92792"
     inkscape:window-x="-8"
     inkscape:window-y="-8"
     inkscape:window-maximized="1"
     inkscape:current-layer="g10"
     lock-margins="true"
     fit-margin-top="10"
     fit-margin-left="10"
     fit-margin-right="10"
     fit-margin-bottom="10"
     inkscape:document-rotation="0" />
  <g
     inkscape:groupmode="layer"
     inkscape:label="Image"
     id="g10"
     transform="translate(981.07342,-22.55296)">
    <path
       style="fill:#083f89;fill-opacity:1;stroke-width:0.912293"
       d="m -740.68488,882.87056 c -23.93907,-2.13667 -49.10497,-7.88475 -69.79041,-15.94065 -78.82928,-30.69988 -137.38109,-99.0912 -155.03868,-181.09256 -5.37783,-24.97445 -4.97831,-1.9097 -5.28186,-304.93388 l -0.27759,-277.10895 h 249.99999 250.00001 l -0.26203,277.5651 c -0.24674,261.37614 -0.35687,278.12379 -1.88809,287.14417 -6.83008,40.23555 -18.72513,71.29226 -39.3095,102.63295 -40.62572,61.8546 -107.28576,102.56051 -182.08106,111.18768 -8.55301,0.98654 -37.3164,1.32751 -46.07078,0.54614 z"
       id="path837" />
    <path
       id="path1214"
       style="opacity:1;fill:#ffffff;stroke-width:4.80063"
       d="m -908.75867,500.6281 v 140.16999 c 1.4e-4,67.22311 35.38813,129.33978 93.60505,162.95133 58.21703,33.61161 129.94337,33.61161 188.1604,0 58.21692,-33.61156 93.60491,-95.72822 93.60505,-162.95133 V 500.6281 h -42.76373 v 30.40976 h -13.30427 V 500.6281 h -13.30427 v 8.55274 h -13.30427 v -8.55274 h -210.01742 v 8.55274 h -13.30427 v -8.55274 h -13.30427 v 30.40976 h -13.30427 V 500.6281 Z m 69.37227,17.10549 h 13.30427 v 13.30427 h -13.30427 z m 223.32169,0 h 13.30427 v 13.30427 h -13.30427 z" />
    <circle
       style="opacity:1;fill:#083f89;fill-opacity:1;stroke-width:3.90353"
       id="path1199"
       cx="-721.07343"
       cy="681.91418"
       r="152.99911" />
    <path
       style="opacity:1;fill:#02abe6;fill-opacity:1;stroke-width:2.66701"
       id="circle1201"
       sodipodi:type="arc"
       sodipodi:cx="721.07343"
       sodipodi:cy="-487.37381"
       sodipodi:rx="104.53355"
       sodipodi:ry="104.53355"
       sodipodi:start="0"
       sodipodi:end="3.1415927"
       sodipodi:arc-type="slice"
       d="m 825.60697,-487.37381 a 104.53355,104.53355 0 0 1 -52.26677,90.52871 104.53355,104.53355 0 0 1 -104.53355,0 104.53355,104.53355 0 0 1 -52.26677,-90.52871 h 104.53355 z"
       transform="scale(-1)" />
    <g
       id="g1317"
       style="fill:#ffffff"
       transform="matrix(0.95030505,0,0,0.95030505,-48.257443,1.6177167)">
      <path
         id="path1203"
         style="opacity:1;fill:#ffffff;stroke-width:0.769391"
         inkscape:transform-center-x="-9.4642758e-06"
         inkscape:transform-center-y="0.36607862"
         d="m -737.8693,326.82599 -43.22264,-14.33521 -12.96771,-23.76864 -12.2177,14.59258 -42.22264,-11.52082 32.88521,26.14368 -13.38265,18.13445 33.43778,-2.38449 36.68778,25.35517 -12.63264,-28.51655 z"
         sodipodi:nodetypes="ccccccccccc" />
      <path
         id="path1206"
         style="opacity:1;fill:#ffffff;stroke-width:0.644542"
         inkscape:transform-center-x="-8.5519965e-06"
         inkscape:transform-center-y="0.30667325"
         d="m -638.38509,308.89288 -36.20892,-12.00904 -10.86342,-19.9117 -10.23514,12.22464 -36.87118,-9.90133 29.04892,22.15134 -11.21104,14.94177 27.26183,-3.24755 31.48446,22.74078 -10.58274,-23.88917 z"
         sodipodi:nodetypes="ccccccccccc" />
      <path
         id="path1208"
         style="opacity:1;fill:#ffffff;stroke-width:0.528277"
         inkscape:transform-center-x="0.52805484"
         inkscape:transform-center-y="-0.39693267"
         d="m -576.55418,274.57134 -30.41208,-9.98876 -9.26535,-17.06949 -7.34006,12.70453 -30.11155,-7.48464 22.9974,16.85399 -6.76946,12.72119 21.91953,-2.10497 22.26663,15.22946 -7.71027,-18.08712 z"
         sodipodi:nodetypes="ccccccccccc" />
      <path
         id="path1210"
         style="opacity:1;fill:#ffffff;stroke-width:0.45636"
         inkscape:transform-center-x="0.45616783"
         inkscape:transform-center-y="-0.34289454"
         d="m -557.05418,227.38775 -23.27192,-6.12893 -8.754,-13.24573 -5.59082,9.47499 -24.0123,-5.71571 17.86664,13.80956 -4.3479,9.73939 17.68551,-2.81841 19.48535,12.40619 -6.41063,-13.37482 z"
         sodipodi:nodetypes="ccccccccccc" />
      <path
         id="path1212"
         style="opacity:1;fill:#ffffff;stroke-width:0.346451"
         inkscape:transform-center-x="0.6807351"
         inkscape:transform-center-y="-0.67151807"
         d="m -588.18342,183.81592 -18.41844,-3.68971 -5.37268,-8.25583 -5.17192,6.18894 -18.46029,-3.21725 14.80388,9.76038 -3.71784,8.45663 12.77036,-4.08096 16.09035,8.6219 -5.60299,-10.08733 z"
         sodipodi:nodetypes="ccccccccccc" />
    </g>
    <rect
       style="opacity:1;fill:#ffffff;stroke-width:3.6595"
       id="rect1216"
       width="42.763729"
       height="81.726234"
       x="-908.75867"
       y="295.49692" />
    <rect
       style="opacity:1;fill:#ffffff;stroke:none;stroke-width:2.55062"
       id="rect1218"
       width="19.006102"
       height="89.328674"
       x="-407.6329"
       y="-932.04114"
       transform="rotate(-90)" />
    <rect
       style="opacity:1;fill:#ffffff;stroke-width:2.64715"
       id="rect1220"
       width="42.763729"
       height="42.763729"
       x="-491.12506"
       y="-908.75867"
       transform="rotate(-90)" />
    <path
       id="path1224"
       style="opacity:1;fill:#02abe6;fill-opacity:1;stroke-width:1.68028"
       inkscape:transform-center-y="-51.206446"
       d="m -680.4144,585.40315 6.9689,134.94332 h -95.0305 l 6.9689,-134.94332 z"
       sodipodi:nodetypes="ccccc" />
    <path
       sodipodi:type="star"
       style="opacity:1;fill:#ffffff;stroke-width:3.77953"
       id="path1192"
       sodipodi:sides="5"
       sodipodi:cx="308.09033"
       sodipodi:cy="1161.1738"
       sodipodi:r1="212.29619"
       sodipodi:r2="81.32032"
       sodipodi:arg1="0.26179939"
       sodipodi:arg2="0.89011792"
       inkscape:flatsided="false"
       inkscape:rounded="0"
       inkscape:randomized="0"
       d="m 513.1527,1216.1201 -153.88583,8.2515 -40.06581,148.8075 -55.40095,-143.8043 -153.90534,7.8792 119.64616,-97.1274 -55.05292,-143.9379 129.34635,83.7763 119.88076,-96.83774 -39.70573,148.90394 z"
       inkscape:transform-center-y="-8.7090329"
       transform="matrix(0.42302052,-0.02248351,-0.02216957,-0.42901086,-825.65922,1252.8745)"
       inkscape:transform-center-x="-1.2274229e-05" />
    <path
       sodipodi:type="star"
       style="opacity:1;fill:#02abe6;fill-opacity:1;stroke-width:3.77953"
       id="path1226"
       sodipodi:sides="3"
       sodipodi:cx="431.5"
       sodipodi:cy="608"
       sodipodi:r1="238.4502"
       sodipodi:r2="119.2251"
       sodipodi:arg1="0.52359878"
       sodipodi:arg2="1.5707963"
       inkscape:flatsided="true"
       inkscape:rounded="0"
       inkscape:randomized="0"
       d="m 638.00393,727.2251 -413.00786,0 L 431.5,369.5498 Z"
       inkscape:transform-center-y="-22.026505"
       transform="matrix(0.07823186,0,0,0.36949448,-754.79106,214.65188)"
       inkscape:transform-center-x="3.6370581e-06" />
    <path
       id="rect1229"
       style="opacity:1;fill:#02abe6;fill-opacity:1;stroke-width:2.12508"
       d="m -789.85732,557.69837 v 8.55275 h 17.58065 v 11.40366 h 102.63294 v -11.40366 h 17.58065 v -8.55275 z" />
    <path
       id="rect1233"
       style="opacity:1;fill:#02abe6;fill-opacity:1;stroke-width:1.87875"
       d="m -811.29857,508.59432 49.9801,31.04826 h -0.0296 v 11.40366 h 80.77593 v -11.40366 h -0.0316 l 49.98011,-31.04826 z" />
    <path
       id="path1237"
       style="opacity:1;fill:#ffffff;stroke-width:0.624371"
       inkscape:transform-center-y="7.5216709"
       d="m -865.52254,438.85827 22.81007,-19.8217 h -89.32867 l 22.81007,19.8217 z"
       sodipodi:nodetypes="ccccc" />
    <path
       sodipodi:type="star"
       style="opacity:1;fill:#ffffff;stroke-width:3.77953"
       id="path1239"
       sodipodi:sides="3"
       sodipodi:cx="431.5"
       sodipodi:cy="608"
       sodipodi:r1="238.4502"
       sodipodi:r2="119.2251"
       sodipodi:arg1="0.52359878"
       sodipodi:arg2="1.5707963"
       inkscape:flatsided="true"
       inkscape:rounded="0"
       inkscape:randomized="0"
       d="m 638.00393,727.2251 -413.00786,0 L 431.5,369.5498 Z"
       inkscape:transform-center-y="-19.0061"
       transform="matrix(0.10354217,0,0,0.31882718,-932.05525,52.234124)" />
    <rect
       style="opacity:1;fill:#ffffff;stroke-width:3.6595"
       id="rect1321"
       width="42.763729"
       height="81.726234"
       x="-576.15192"
       y="295.49692" />
    <rect
       style="opacity:1;fill:#ffffff;stroke:none;stroke-width:2.55062"
       id="rect1323"
       width="19.006102"
       height="89.328674"
       x="-407.6329"
       y="-599.43439"
       transform="rotate(-90)" />
    <rect
       style="opacity:1;fill:#ffffff;stroke-width:2.64715"
       id="rect1325"
       width="42.763729"
       height="42.763729"
       x="-491.12506"
       y="-576.15192"
       transform="rotate(-90)" />
    <path
       id="path1327"
       style="opacity:1;fill:#ffffff;stroke-width:0.624371"
       inkscape:transform-center-y="7.5216709"
       d="m -532.91578,438.85827 22.81008,-19.8217 h -89.32867 l 22.81006,19.8217 z"
       sodipodi:nodetypes="ccccc" />
    <path
       sodipodi:type="star"
       style="opacity:1;fill:#ffffff;stroke-width:3.77953"
       id="path1329"
       sodipodi:sides="3"
       sodipodi:cx="431.5"
       sodipodi:cy="608"
       sodipodi:r1="238.4502"
       sodipodi:r2="119.2251"
       sodipodi:arg1="0.52359878"
       sodipodi:arg2="1.5707963"
       inkscape:flatsided="true"
       inkscape:rounded="0"
       inkscape:randomized="0"
       d="m 638.00393,727.2251 -413.00786,0 L 431.5,369.5498 Z"
       inkscape:transform-center-y="-19.0061"
       transform="matrix(0.10354217,0,0,0.31882718,-599.44849,52.234124)"
       inkscape:transform-center-x="8.2443855e-06" />
    <text
       xml:space="preserve"
       style="font-style:normal;font-variant:normal;font-weight:900;font-size:84.1547px;line-height:125%;font-family:'Arial Black';text-align:start;letter-spacing:0px;word-spacing:0px;text-anchor:start;fill:#083f89;fill-opacity:1;stroke:none;stroke-width:1.31493"
       x="-781.29834"
       y="100.70094"
       id="text1377"
       transform="scale(1.2429376,0.80454562)"><tspan
         sodipodi:role="line"
         x="-781.29834"
         y="100.70094"
         id="tspan1375"
         style="fill:#083f89;fill-opacity:1;stroke-width:1.31493"><tspan
           dx="0"
           dy="0"
           style="font-style:normal;font-variant:normal;font-weight:900;font-size:84.1547px;font-family:'Arial Black';fill:#083f89;fill-opacity:1;stroke-width:1.31493"
           id="tspan1373">ANKARA</tspan></tspan></text>
    <text
       xml:space="preserve"
       style="font-style:normal;font-variant:normal;font-weight:400;font-size:14.017px;line-height:125%;font-family:Calibri;text-align:start;letter-spacing:0px;word-spacing:0px;text-anchor:start;fill:#000000;fill-opacity:1;stroke:none;stroke-width:0.950305"
       x="-679.31738"
       y="77.059692"
       id="text1383"><tspan
         sodipodi:role="line"
         x="-679.31738"
         y="77.059692"
         id="tspan1381"
         style="stroke-width:0.950305"><tspan
           dx="0"
           dy="0"
           style="font-style:normal;font-variant:normal;font-weight:400;font-size:14.017px;font-family:Calibri;fill:#000000;stroke-width:0.950305"
           id="tspan1379"> </tspan></tspan></text>
  </g>
</svg>
