<svg width="20" height="20" viewBox="0 0 20 20" fill="none" xmlns="http://www.w3.org/2000/svg">
<g id="Frame">
<g id="Group">
<path id="Vector" d="M3.76859 10.1406L5.66703 9.44918C5.72563 9.42578 5.79594 9.41406 5.86621 9.41406H18.0303C18.3584 9.41406 18.6162 9.67184 18.6162 10V18.2422C18.6162 19.2148 17.8311 20 16.8584 20H5.13965C4.16695 20 3.38184 19.2148 3.38184 18.2422V10.6914C3.38184 10.4453 3.53422 10.2227 3.76859 10.1406Z" fill="#FC1A40"/>
<path id="Vector_2" d="M3.38184 10.6914V18.2422C3.38184 19.2148 4.16695 20 5.13965 20H10.999V9.41406H5.86621C5.7959 9.41406 5.72559 9.42578 5.66703 9.44918L3.76859 10.1406C3.53422 10.2227 3.38184 10.4453 3.38184 10.6914Z" fill="#C60034"/>
<path id="Vector_3" d="M3.59259 3.81984C3.79177 3.01124 4.38947 2.37847 5.19806 2.12062C5.99494 1.87449 6.85044 2.05031 7.4715 2.61277L8.83091 3.80812L9.1004 2.01519C9.22931 1.19488 9.75665 0.50343 10.5418 0.175344C10.6941 0.116712 10.8465 0.0698366 10.9988 0.0463991C11.6433 -0.0825072 12.3113 0.0581178 12.8504 0.456594C13.5652 0.972219 13.9285 1.83941 13.8113 2.70656C13.6824 3.57374 13.0965 4.31202 12.2645 4.60499L10.9988 5.06202L9.44021 5.63624C9.42849 5.63624 9.42849 5.63624 9.42849 5.63624L6.72146 6.6323C6.45197 6.72609 6.17072 6.773 5.90119 6.773C5.32689 6.773 4.76443 6.56199 4.31912 6.16359C3.6629 5.57765 3.38165 4.67527 3.59259 3.81984Z" fill="#FE9923"/>
<path id="Vector_4" d="M4.31934 6.16361C4.76465 6.56201 5.32715 6.77303 5.90141 6.77303C6.1709 6.77303 6.45215 6.72611 6.72168 6.63232L9.42871 5.63627C9.42871 5.63627 9.42871 5.63627 9.44043 5.63627L10.999 5.06205V0.0463867C10.8467 0.0698633 10.6943 0.116699 10.542 0.175332C9.75688 0.503418 9.22949 1.19486 9.10063 2.01518L8.83113 3.80811L7.47172 2.61275C6.85066 2.05029 5.99516 1.87447 5.19828 2.12061C4.38969 2.37846 3.79203 3.01123 3.59281 3.81982C3.38184 4.67529 3.66309 5.57768 4.31934 6.16361Z" fill="#FE8821"/>
<path id="Vector_5" d="M1.37782 9.14426L2.1747 11.3474C2.26849 11.5818 2.49114 11.7224 2.72552 11.7224C2.79583 11.7224 2.86614 11.7107 2.9247 11.6873L8.98333 9.48414L9.53407 7.66774L10.9989 7.99582L12.2879 8.28879L18.3466 6.08567C18.6513 5.96852 18.8036 5.62864 18.6981 5.33567L17.8895 3.13262C17.7372 2.68731 17.409 2.33567 16.9872 2.13649C16.5653 1.93731 16.0849 1.91383 15.6395 2.07789L10.9989 3.76539L10.6824 3.88254C10.6824 3.88254 9.41685 6.17946 9.38165 6.17946C9.35818 6.17946 8.85431 5.89821 8.36212 5.62864C7.87005 5.3591 7.37782 5.07789 7.37782 5.07789L2.43255 6.88254C1.98724 7.0466 1.63568 7.37477 1.4365 7.79664C1.2372 8.21848 1.2138 8.69899 1.37782 9.14426Z" fill="#FF3E75"/>
<path id="Vector_6" d="M1.37793 9.14449L2.1748 11.3476C2.26859 11.582 2.49125 11.7226 2.72562 11.7226C2.79594 11.7226 2.86625 11.7109 2.9248 11.6875L8.98344 9.48438L9.53418 7.66797L10.999 7.99605V3.76562L10.6826 3.88277C10.6826 3.88277 9.41699 6.17969 9.3818 6.17969C9.35832 6.17969 8.85445 5.89844 8.36227 5.62887C7.87016 5.35934 7.37793 5.07812 7.37793 5.07812L2.43266 6.88277C1.98734 7.04684 1.63578 7.375 1.4366 7.79688C1.2373 8.21871 1.21391 8.69922 1.37793 9.14449Z" fill="#FC1A40"/>
<g id="Group_2">
<path id="Vector_7" d="M12.7568 9.41406V20H9.24121V9.41406H12.7568Z" fill="#FCBF29"/>
<path id="Vector_8" d="M10.6826 3.88281L10.9991 4.75L12.2881 8.2891L10.9991 8.75789L9.53422 9.28523L8.98348 9.48441L7.37793 5.07816L10.6826 3.88281Z" fill="#FCBF29"/>
</g>
<g id="Group_3">
<path id="Vector_9" d="M9.24121 9.41406H10.999V20H9.24121V9.41406Z" fill="#FE9923"/>
<path id="Vector_10" d="M7.37793 5.07816L8.98344 9.48441L9.53418 9.2852L10.999 8.75785V4.75L10.6826 3.88281L7.37793 5.07816Z" fill="#FE9923"/>
</g>
</g>
</g>
</svg>
