<svg width="18" height="20" viewBox="0 0 18 20" fill="none" xmlns="http://www.w3.org/2000/svg">
<path d="M2.7682 10.1406L4.66663 9.44918C4.72523 9.42578 4.79554 9.41406 4.86581 9.41406H17.0299C17.358 9.41406 17.6158 9.67184 17.6158 10V18.2422C17.6158 19.2148 16.8307 20 15.858 20H4.13925C3.16656 20 2.38144 19.2148 2.38144 18.2422V10.6914C2.38144 10.4453 2.53382 10.2227 2.7682 10.1406Z" fill="#FC1A40"/>
<path d="M2.38144 10.6914V18.2422C2.38144 19.2148 3.16656 20 4.13925 20H9.99863V9.41406H4.86581C4.7955 9.41406 4.72519 9.42578 4.66663 9.44918L2.7682 10.1406C2.53382 10.2227 2.38144 10.4453 2.38144 10.6914Z" fill="#C60034"/>
<path d="M2.59238 3.81984C2.79156 3.01124 3.38925 2.37847 4.19785 2.12062C4.99472 1.87449 5.85023 2.05031 6.47129 2.61277L7.8307 3.80812L8.10019 2.01519C8.2291 1.19488 8.75644 0.50343 9.54156 0.175344C9.6939 0.116712 9.84625 0.0698366 9.99859 0.0463991C10.6431 -0.0825072 11.3111 0.0581178 11.8502 0.456594C12.565 0.972219 12.9283 1.83941 12.8111 2.70656C12.6822 3.57374 12.0962 4.31202 11.2643 4.60499L9.99859 5.06202L8.44 5.63624C8.42828 5.63624 8.42828 5.63624 8.42828 5.63624L5.72125 6.6323C5.45175 6.72609 5.1705 6.773 4.90097 6.773C4.32668 6.773 3.76421 6.56199 3.3189 6.16359C2.66269 5.57765 2.38144 4.67527 2.59238 3.81984Z" fill="#FE9923"/>
<path d="M3.31894 6.16361C3.76425 6.56201 4.32675 6.77303 4.90101 6.77303C5.1705 6.77303 5.45175 6.72611 5.72128 6.63232L8.42831 5.63627C8.42831 5.63627 8.42831 5.63627 8.44003 5.63627L9.99863 5.06205V0.0463867C9.84628 0.0698633 9.69394 0.116699 9.5416 0.175332C8.75648 0.503418 8.2291 1.19486 8.10023 2.01518L7.83074 3.80811L6.47132 2.61275C5.85027 2.05029 4.99476 1.87447 4.19788 2.12061C3.38929 2.37846 2.79163 3.01123 2.59242 3.81982C2.38144 4.67529 2.66269 5.57768 3.31894 6.16361Z" fill="#FE8821"/>
<path d="M0.37755 9.1445L1.17443 11.3476C1.26821 11.582 1.49087 11.7226 1.72524 11.7226C1.79556 11.7226 1.86587 11.7109 1.92442 11.6875L7.98306 9.48439L8.5338 7.66798L9.99864 7.99607L11.2877 8.28904L17.3463 6.08591C17.651 5.96876 17.8033 5.62888 17.6979 5.33591L16.8893 3.13286C16.7369 2.68755 16.4088 2.33591 15.9869 2.13673C15.565 1.93755 15.0846 1.91408 14.6393 2.07814L9.9986 3.76564L9.68216 3.88279C9.68216 3.88279 8.41657 6.1797 8.38138 6.1797C8.3579 6.1797 7.85403 5.89845 7.36185 5.62888C6.86978 5.35935 6.37755 5.07814 6.37755 5.07814L1.43228 6.88279C0.986963 7.04685 0.635401 7.37501 0.436222 7.79689C0.236925 8.21872 0.213526 8.69923 0.37755 9.1445Z" fill="#FF3E75"/>
<path d="M0.377533 9.14449L1.17441 11.3476C1.2682 11.582 1.49085 11.7226 1.72523 11.7226C1.79554 11.7226 1.86585 11.7109 1.92441 11.6875L7.98304 9.48438L8.53378 7.66797L9.99863 7.99605V3.76562L9.68218 3.88277C9.68218 3.88277 8.4166 6.17969 8.3814 6.17969C8.35792 6.17969 7.85406 5.89844 7.36187 5.62887C6.86976 5.35934 6.37753 5.07812 6.37753 5.07812L1.43226 6.88277C0.986947 7.04684 0.635385 7.375 0.436205 7.79688C0.236908 8.21871 0.21351 8.69922 0.377533 9.14449Z" fill="#FC1A40"/>
<path d="M11.7564 9.41406V20H8.24081V9.41406H11.7564Z" fill="#FCBF29"/>
<path d="M9.68222 3.88281L9.99867 4.75L11.2877 8.2891L9.99867 8.75789L8.53382 9.28523L7.98308 9.48441L6.37753 5.07816L9.68222 3.88281Z" fill="#FCBF29"/>
<path d="M8.24066 9.41406H9.99847V20H8.24066V9.41406Z" fill="#FE9923"/>
<path d="M6.37753 5.07816L7.98304 9.48441L8.53378 9.2852L9.99863 8.75785V4.75L9.68222 3.88281L6.37753 5.07816Z" fill="#FE9923"/>
</svg>
